<svg width="146" height="36" viewBox="0 0 146 36" fill="none" xmlns="http://www.w3.org/2000/svg">
<path d="M27.2587 12.3598C27.2587 8.25093 27.2393 3.89457 31.8059 2.33527C36.6817 0.670353 40.4634 1.57734 43.0188 6.2624C44.0144 8.08751 44.17 8.95143 46.4809 8.43265C54.041 6.73549 59.8006 3.28036 67.305 6.88247C72.2387 9.25063 74.8303 14.0404 79.5515 10.4996C87.4494 4.57611 97.4095 8.46021 105.698 11.223C115.532 14.5011 125.265 17.9337 135.255 20.7308C139.219 21.8407 148.413 21.7556 140.835 25.588C118.349 36.9606 92.2181 33.7523 67.8217 33.7523C48.3942 33.7523 28.6886 33.766 9.27655 32.7705C4.48217 32.5246 -0.806309 22.7209 4.41931 19.8007C9.82801 16.7781 16.8463 17.0707 22.6081 15.1501" stroke="#5B5B5B" stroke-width="3" stroke-linecap="round"/>
</svg>
