<svg width="143" height="36" viewBox="0 0 143 36" fill="none" xmlns="http://www.w3.org/2000/svg">
<path d="M64.8552 5.65524C62.9226 3.72264 58.2568 1.30687 55.5541 2.65823C50.6117 5.12941 52.7206 10.954 49.9734 14.3879C49.6888 14.7438 47.6809 14.0128 47.1831 14.0262C44.3726 14.1022 41.6824 15.8507 39.3805 17.2816C34.2069 20.4976 33.7794 23.1362 27.6508 20.0719C21.8383 17.1657 19.6842 16.5045 13.3375 19.0902C10.2313 20.3556 7.18179 21.7604 4.86315 24.2574C3.81298 25.3884 0.854559 28.1297 3.05461 29.8898C9.30115 34.887 24.6143 33.1656 31.7846 33.3518C47.8976 33.7703 64.0334 33.5585 80.1503 33.5585C97.0236 33.5585 113.853 32.9044 130.686 32.6284C133.773 32.5778 135.704 31.9569 138.541 30.9749C143.644 29.2084 138.94 24.0233 135.44 22.8106C125.564 19.3882 111.986 20.537 101.543 20.537C99.4155 20.537 93.7329 21.6037 92.035 20.3303C89.8756 18.7107 87.0514 14.0262 84.1808 14.0262C79.3732 14.0262 78.708 17.4194 74.673 13.6128C70.7115 9.87554 61.1628 4.69713 56.4842 9.37568" stroke="#5B5B5B" stroke-width="3" stroke-linecap="round"/>
</svg>
