<svg width="197" height="52" viewBox="0 0 197 52" fill="none" xmlns="http://www.w3.org/2000/svg">
<path d="M100.311 18.1124C99.1883 13.5621 97.947 4.98804 92.7669 2.86891C88.9417 1.30406 83.3123 3.3784 80.9338 6.58935C79.011 9.18519 79.3966 21.4229 75.7149 18.8358C67.5077 13.0686 58.435 11.2262 51.1704 19.5592C46.7916 24.5819 48.751 32.678 41.1975 31.5989C29.8287 29.9748 13.4238 32.1257 4.19984 39.5049C1.30435 41.8213 0.744022 45.8809 4.14817 48.2376C6.95007 50.1773 13.3809 49.7011 16.6013 49.7361C26.141 49.8398 35.6878 49.7361 45.228 49.7361C64.3964 49.7361 83.4721 49.4726 102.585 48.0826C131.116 46.0076 160.364 48.0735 188.671 43.0186C190.401 42.7099 198.71 40.1119 194.149 37.1796C184.627 31.0584 170.374 31.8024 159.58 31.1856C155.292 30.9406 150.348 30.8584 146.093 30.2038C143.962 29.8758 145.046 23.4957 144.905 21.9361C144.594 18.5171 141.699 16.4672 138.601 15.7871C133.44 14.6543 127.922 14.134 122.634 14.3919C119.435 14.5479 116.828 17.1132 113.746 17.9057C109.865 18.9037 109.494 18.6232 105.892 17.1823" stroke="#5B5B5B" stroke-width="3" stroke-linecap="round"/>
</svg>
