<svg width="106" height="36" viewBox="0 0 106 36" fill="none" xmlns="http://www.w3.org/2000/svg">
<path d="M68.6715 16.1931C68.2808 12.8721 67.6592 3.45284 63.5042 2.34486C60.2692 1.48218 58.1515 3.20921 56.9935 6.16864C55.9244 8.90071 56.0721 17.1902 54.6165 14.643C53.3517 12.4295 49.1742 8.9785 46.3489 9.78573C44.0123 10.4533 39.5498 17.5267 37.0478 16.5032C35.6409 15.9276 34.4261 13.5782 33.1207 12.6794C30.5096 10.8816 27.5995 10.3915 24.543 11.1292C19.7624 12.2832 17.0622 15.275 13.0716 17.8467C9.84041 19.929 3.06443 23.5774 1.91033 27.3545C1.60872 28.3416 1.03054 33.6067 2.37538 33.8135C11.3205 35.1897 21.5287 33.9107 30.537 33.8652C46.2362 33.7859 62.4395 33.8039 78.0759 32.4184C83.8352 31.9081 90.901 32.0154 96.5231 30.6098C102.169 29.1984 106.386 26.905 102.569 19.9653C98.1864 11.9972 80.5785 15.263 73.322 15.263" stroke="#5B5B5B" stroke-width="3" stroke-linecap="round"/>
</svg>
