<svg width="711" height="204" viewBox="0 0 711 204" fill="none" xmlns="http://www.w3.org/2000/svg">
    <path id="introSelected"
        d="M11.1299 194.174C10.2137 181.067 6.84761 168.487 6.20266 155.16C5.29479 136.399 5.91282 117.407 5.91282 98.6179C5.91282 77.5514 7.29811 59.7899 16.0572 41.5106C23.6202 25.7273 29.626 22.0104 43.302 17.386C76.6617 6.10575 112.15 9.28166 146.267 9.28166C265.007 9.28166 384.266 12.8166 502.841 4.19289C546.425 1.02312 590.343 2.10781 633.993 2.49663C645.341 2.59771 657.19 3.11708 668.484 4.56983C671.508 4.95884 683.491 5.46172 685.512 8.52777C687.457 11.4791 690.667 12.2188 692.613 15.3128C695.836 20.4354 697.872 27.0754 699.787 33.1235C706.951 55.7524 708.917 78.3583 708.917 102.576C708.917 120.596 710.523 151.186 699.642 165.337C691.5 175.925 678.753 179.36 667.832 181.263C635.719 186.861 603.595 190.356 571.243 192.478C537.313 194.702 503.334 197.975 469.365 198.886C426.947 200.023 384.842 197.646 342.416 200.582C301.105 203.441 259.974 201.12 218.654 200.959C188.112 200.84 157.789 200.521 127.283 198.509C92.6168 196.222 57.6963 190.781 23.0133 190.781C19.9208 190.781 3.61368 191.586 2 187.389"
        stroke="#5B5B5B" stroke-width="3" stroke-linecap="round" />
</svg>