<svg width="592" height="144" viewBox="0 0 592 144" fill="none" xmlns="http://www.w3.org/2000/svg"
    class="absolute top-0 scale-[1.1]">
    <path id="likeSelected"
        d="M22.5155 141.692C19.0778 141.067 17.3274 138.332 16.2301 135.298C11.0009 120.841 8.99813 104.746 6.42267 89.6749C1.03546 58.1497 -5.96629 12.4383 35.5197 4.60531C68.6598 -1.6519 104.823 3.34153 138.145 5.14715C186.429 7.76352 234.799 7.43195 283.089 10.0779C325.22 12.3865 367.341 14.8346 409.555 14.3585C448.243 13.9222 486.932 14.4901 525.564 16.851C544.817 18.0276 567.171 19.77 579.965 36.1407C587.538 45.8303 589.812 58.5606 590.098 70.5478C590.452 85.441 587.233 97.0913 575.901 107.393C560.141 121.721 540.351 127.734 519.929 131.939C484.135 139.308 447.413 139.468 411.018 139.958C346.261 140.831 282.026 135.649 217.363 133.51C159.654 131.601 101.721 131.939 43.9725 131.939"
        stroke="black" stroke-width="2" stroke-linecap="round" />
</svg>