<svg width="101" height="8" viewBox="0 0 101 8" fill="none" xmlns="http://www.w3.org/2000/svg">
<path d="M0.770599 1.58726C1.05556 0.827368 6.38732 1.21399 6.67671 1.21602C20.5597 1.31345 34.4045 1.67227 48.2895 1.29477C59.5399 0.988899 70.897 0.310524 82.1512 0.889781C82.9828 0.932584 83.6682 1.42574 84.3224 1.28352C85.7505 0.973067 87.3098 1.15788 88.766 0.979779C91.2987 0.670025 93.6539 0.8116 96.2134 0.93478C96.9032 0.967979 97.5929 0.979779 98.2833 0.979779C99.5942 0.979779 95.6653 1.12076 94.3571 1.20477C81.5542 2.02698 68.7511 2.83928 55.9393 3.51097C44.1436 4.12939 32.3453 4.36496 20.5476 4.87219C16.2094 5.05871 11.8646 5.32586 7.61044 6.23341C7.05938 6.35096 6.43885 6.42519 5.90048 6.60465C4.94697 6.92248 7.91032 6.64965 8.91541 6.64965C23.6836 6.64965 38.4328 6.25903 53.1944 5.83966C63.4819 5.54741 73.8027 5.07466 84.0974 5.24343C85.9561 5.2739 87.8229 5.81037 89.6773 6.04216C91.9732 6.32916 94.3159 6.31717 96.5958 6.69464C97.6659 6.87181 99.5299 6.88073 100.398 7.45963" stroke="#5B5B5B" stroke-linecap="round"/>
</svg>
